<svg width="40" height="41" viewBox="0 0 40 41" fill="none" xmlns="http://www.w3.org/2000/svg">
<rect y="0.5" width="40" height="40" rx="8" fill="#FF620A"/>
<path d="M27.3172 20.9422L21.6922 26.5672C21.5749 26.6844 21.4159 26.7503 21.25 26.7503C21.0841 26.7503 20.9251 26.6844 20.8078 26.5672C20.6905 26.4499 20.6247 26.2908 20.6247 26.125C20.6247 25.9591 20.6905 25.8001 20.8078 25.6828L25.3664 21.125H13.125C12.9592 21.125 12.8003 21.0591 12.6831 20.9419C12.5658 20.8247 12.5 20.6657 12.5 20.5C12.5 20.3342 12.5658 20.1753 12.6831 20.058C12.8003 19.9408 12.9592 19.875 13.125 19.875H25.3664L20.8078 15.3172C20.6905 15.1999 20.6247 15.0408 20.6247 14.875C20.6247 14.7091 20.6905 14.5501 20.8078 14.4328C20.9251 14.3155 21.0841 14.2496 21.25 14.2496C21.4159 14.2496 21.5749 14.3155 21.6922 14.4328L27.3172 20.0578C27.3753 20.1158 27.4214 20.1848 27.4529 20.2606C27.4843 20.3365 27.5005 20.4178 27.5005 20.5C27.5005 20.5821 27.4843 20.6634 27.4529 20.7393C27.4214 20.8152 27.3753 20.8841 27.3172 20.9422Z" fill="white"/>
</svg>
