<svg width="152" height="41" viewBox="0 0 152 41" fill="none" xmlns="http://www.w3.org/2000/svg">
<path d="M17.7425 26.2624C17.8483 26.3947 17.8616 26.5798 17.7689 26.7253C17.6102 26.9766 17.4646 27.2279 17.3191 27.4792C16.4856 28.9209 15.7976 30.4419 15.2551 32.0159C15.1757 32.2275 14.8846 32.2539 14.7788 32.0555C13.3896 29.5954 11.4182 27.5189 9.01016 25.9846C6.41693 24.3446 3.45324 23.432 0.383693 23.3394C0.172001 23.3394 0 23.1542 0 22.9426V17.9959C0 17.7843 0.172001 17.6124 0.383693 17.5991C3.45324 17.5065 6.41693 16.5939 9.01016 14.9539C11.4049 13.4328 13.3896 11.3431 14.7788 8.88296C14.8979 8.68457 15.1889 8.71102 15.2551 8.92264C15.7976 10.4966 16.4856 12.0176 17.3191 13.4593C17.4646 13.7106 17.6234 13.9619 17.7689 14.2132C17.8616 14.3587 17.8483 14.5438 17.7425 14.6761C15.9034 16.9907 13.6806 18.8953 11.1139 20.3502L10.9154 20.4693L11.1139 20.5883C13.6806 22.0432 15.9166 23.9478 17.7425 26.2624Z" fill="white"/>
<path d="M39.6791 17.9961V22.9427C39.6791 23.1544 39.5071 23.3263 39.2954 23.3395C30.272 23.6173 22.9819 30.905 22.704 39.9254C22.704 40.137 22.5188 40.309 22.3071 40.309H17.372C17.1471 40.309 16.9751 40.1238 16.9751 39.9122C17.1603 31.9367 21.5662 24.5696 28.5388 20.5885L28.7373 20.4694L28.5388 20.3504C21.5529 16.3692 17.1603 9.00217 16.9751 1.02667C16.9751 0.801825 17.1471 0.629883 17.372 0.629883H22.3071C22.5188 0.629883 22.6908 0.801825 22.704 1.01345C22.9819 10.0338 30.272 17.3215 39.2954 17.5993C39.5071 17.5993 39.6791 17.7845 39.6791 17.9961Z" fill="#FF620A"/>
<path d="M48.0667 36.4676V35.5717H50.6135C51.2449 35.5717 51.7952 35.4693 52.2645 35.2646C52.7423 35.0598 53.1433 34.7825 53.4675 34.4327C53.7917 34.0743 54.0349 33.6648 54.197 33.2041C54.3591 32.7433 54.4402 32.2527 54.4402 31.7323C54.4402 31.1947 54.3548 30.6956 54.1842 30.2349C54.0221 29.7741 53.7789 29.3689 53.4547 29.0191C53.1305 28.6692 52.7295 28.4005 52.2517 28.2128C51.7824 28.0251 51.2364 27.9312 50.6135 27.9312H48.0667V27.0353H50.5111C51.3473 27.0353 52.0725 27.1633 52.6868 27.4193C53.3011 27.6752 53.8131 28.0251 54.2226 28.4687C54.6321 28.9039 54.935 29.3945 55.1313 29.9405C55.3275 30.4866 55.4256 31.0412 55.4256 31.6043V31.8475C55.4256 32.402 55.3275 32.9524 55.1313 33.4984C54.935 34.0445 54.6364 34.5436 54.2354 34.9958C53.8344 35.4395 53.3225 35.7978 52.6996 36.0709C52.0853 36.3354 51.3558 36.4676 50.5111 36.4676H48.0667ZM47.35 36.4676V27.0353H48.3226V36.4676H47.35Z" fill="#FF620A"/>
<path d="M57.5235 36.4164V27.0737H58.4962V36.4164H57.5235ZM58.2658 36.4164V35.5333H62.9372V36.4164H58.2658ZM58.2658 32.1034V31.2331H62.502V32.1034H58.2658ZM58.2658 27.9568V27.0737H62.7964V27.9568H58.2658Z" fill="#FF620A"/>
<path d="M68.1172 36.634C67.3323 36.634 66.671 36.5103 66.1335 36.2628C65.596 36.0069 65.1864 35.657 64.9049 35.2134C64.6319 34.7612 64.4953 34.2535 64.4953 33.6904H65.468C65.468 34.0487 65.5533 34.3858 65.724 34.7015C65.9031 35.0086 66.1847 35.2603 66.5687 35.4565C66.9611 35.6443 67.4773 35.7381 68.1172 35.7381C68.7059 35.7381 69.1923 35.6528 69.5762 35.4821C69.9687 35.3115 70.2588 35.0811 70.4465 34.791C70.6427 34.5009 70.7409 34.1767 70.7409 33.8184C70.7409 33.3662 70.5617 32.9908 70.2033 32.6921C69.8535 32.385 69.3245 32.2015 68.6164 32.1418L67.5413 32.0394C66.7393 31.9712 66.0994 31.7237 65.6216 31.2971C65.1523 30.862 64.9177 30.2903 64.9177 29.5822C64.9177 29.0447 65.0457 28.5711 65.3016 28.1616C65.5576 27.752 65.9202 27.4278 66.3895 27.1889C66.8673 26.95 67.4389 26.8306 68.1044 26.8306C68.7785 26.8306 69.3544 26.9543 69.8322 27.2017C70.3185 27.4406 70.6897 27.7734 70.9456 28.2C71.2016 28.6266 71.3296 29.1214 71.3296 29.6846H70.3569C70.3569 29.3433 70.2801 29.0233 70.1265 28.7247C69.973 28.4261 69.7298 28.1872 69.397 28.008C69.0643 27.8203 68.6334 27.7264 68.1044 27.7264C67.601 27.7264 67.183 27.8118 66.8502 27.9824C66.526 28.153 66.2828 28.3791 66.1207 28.6607C65.9671 28.9423 65.8903 29.2494 65.8903 29.5822C65.8903 30.0003 66.0397 30.3543 66.3383 30.6444C66.6369 30.9345 67.0678 31.1009 67.6309 31.1436L68.7059 31.2459C69.3373 31.2971 69.8748 31.4379 70.3185 31.6683C70.7707 31.8901 71.1163 32.1845 71.3552 32.5514C71.5941 32.9097 71.7135 33.332 71.7135 33.8184C71.7135 34.3644 71.5642 34.8508 71.2656 35.2774C70.9755 35.704 70.5617 36.0367 70.0242 36.2756C69.4866 36.5145 68.851 36.634 68.1172 36.634Z" fill="#FF620A"/>
<path d="M74.0718 36.4164V27.0737H75.0444V36.4164H74.0718Z" fill="#FF620A"/>
<path d="M82.0658 36.634C81.2979 36.634 80.6153 36.506 80.018 36.25C79.4293 35.9941 78.9345 35.6443 78.5335 35.2006C78.1324 34.7484 77.8253 34.2322 77.612 33.652C77.4072 33.0633 77.3048 32.4447 77.3048 31.7963V31.5659C77.3048 30.9686 77.4029 30.3885 77.5992 29.8253C77.804 29.2622 78.0983 28.7546 78.4823 28.3024C78.8662 27.8502 79.344 27.4918 79.9157 27.2273C80.4873 26.9628 81.1357 26.8306 81.861 26.8306C82.6203 26.8306 83.2944 26.9756 83.8831 27.2657C84.4718 27.5473 84.9453 27.944 85.3037 28.4559C85.6706 28.9679 85.8839 29.5608 85.9436 30.2349H84.9581C84.8899 29.6888 84.7064 29.2281 84.4078 28.8527C84.1177 28.4773 83.7508 28.1957 83.3072 28.008C82.8635 27.8203 82.3814 27.7264 81.861 27.7264C81.3149 27.7264 80.8201 27.8246 80.3764 28.0208C79.9327 28.217 79.5573 28.4943 79.2502 28.8527C78.943 29.211 78.7041 29.6334 78.5335 30.1197C78.3713 30.5975 78.2903 31.1222 78.2903 31.6939C78.2903 32.2997 78.3756 32.8542 78.5463 33.3576C78.7169 33.8525 78.9643 34.2791 79.2885 34.6375C79.6128 34.9958 80.0052 35.2731 80.466 35.4693C80.9352 35.6656 81.4685 35.7637 82.0658 35.7637C82.7995 35.7637 83.4437 35.6229 83.9983 35.3414C84.5614 35.0513 84.9965 34.6716 85.3037 34.2023L84.9197 35.4054V32.6409H85.8412V34.9702C85.4402 35.4907 84.9197 35.9002 84.2798 36.1988C83.6399 36.4889 82.9019 36.634 82.0658 36.634ZM81.7202 32.8457V32.0266H86.6731V32.8457H81.7202Z" fill="#FF620A"/>
<path d="M88.6191 36.4164V27.0737H90.2445L95.3638 35.5333H95.7733L95.5173 35.7381V27.0737H96.4516V36.4164H94.8134L89.6942 27.9568H89.2846L89.5406 27.752V36.4164H88.6191Z" fill="#FF620A"/>
<path d="M105.349 36.634C104.564 36.634 103.903 36.5103 103.366 36.2628C102.828 36.0069 102.419 35.657 102.137 35.2134C101.864 34.7612 101.728 34.2535 101.728 33.6904H102.7C102.7 34.0487 102.786 34.3858 102.956 34.7015C103.135 35.0086 103.417 35.2603 103.801 35.4565C104.193 35.6443 104.71 35.7381 105.349 35.7381C105.938 35.7381 106.424 35.6528 106.808 35.4821C107.201 35.3115 107.491 35.0811 107.679 34.791C107.875 34.5009 107.973 34.1767 107.973 33.8184C107.973 33.3662 107.794 32.9908 107.436 32.6921C107.086 32.385 106.557 32.2015 105.849 32.1418L104.774 32.0394C103.972 31.9712 103.332 31.7237 102.854 31.2971C102.385 30.862 102.15 30.2903 102.15 29.5822C102.15 29.0447 102.278 28.5711 102.534 28.1616C102.79 27.752 103.152 27.4278 103.622 27.1889C104.099 26.95 104.671 26.8306 105.337 26.8306C106.011 26.8306 106.587 26.9543 107.064 27.2017C107.551 27.4406 107.922 27.7734 108.178 28.2C108.434 28.6266 108.562 29.1214 108.562 29.6846H107.589C107.589 29.3433 107.512 29.0233 107.359 28.7247C107.205 28.4261 106.962 28.1872 106.629 28.008C106.297 27.8203 105.866 27.7264 105.337 27.7264C104.833 27.7264 104.415 27.8118 104.082 27.9824C103.758 28.153 103.515 28.3791 103.353 28.6607C103.199 28.9423 103.123 29.2494 103.123 29.5822C103.123 30.0003 103.272 30.3543 103.571 30.6444C103.869 30.9345 104.3 31.1009 104.863 31.1436L105.938 31.2459C106.57 31.2971 107.107 31.4379 107.551 31.6683C108.003 31.8901 108.348 32.1845 108.587 32.5514C108.826 32.9097 108.946 33.332 108.946 33.8184C108.946 34.3644 108.796 34.8508 108.498 35.2774C108.208 35.704 107.794 36.0367 107.256 36.2756C106.719 36.5145 106.083 36.634 105.349 36.634Z" fill="#FF620A"/>
<path d="M112.871 36.4164V27.7136H113.843V36.4164H112.871ZM109.953 27.9568V27.0737H116.761V27.9568H109.953Z" fill="#FF620A"/>
<path d="M122.187 36.634C121.334 36.634 120.626 36.4719 120.063 36.1476C119.499 35.8234 119.077 35.3712 118.796 34.791C118.514 34.2023 118.373 33.5283 118.373 32.7689V27.0737H119.346V32.8841C119.346 33.4558 119.448 33.9549 119.653 34.3815C119.866 34.8081 120.182 35.1409 120.6 35.3798C121.027 35.6187 121.556 35.7381 122.187 35.7381C122.81 35.7381 123.33 35.6229 123.748 35.3926C124.167 35.1537 124.482 34.8209 124.696 34.3943C124.909 33.9592 125.015 33.4558 125.015 32.8841V27.0737H125.988V32.7689C125.988 33.5283 125.847 34.2023 125.566 34.791C125.284 35.3712 124.862 35.8234 124.299 36.1476C123.744 36.4719 123.04 36.634 122.187 36.634Z" fill="#FF620A"/>
<path d="M129.443 36.4676V35.5717H131.989C132.621 35.5717 133.171 35.4693 133.64 35.2646C134.118 35.0598 134.519 34.7825 134.843 34.4327C135.168 34.0743 135.411 33.6648 135.573 33.2041C135.735 32.7433 135.816 32.2527 135.816 31.7323C135.816 31.1947 135.731 30.6956 135.56 30.2349C135.398 29.7741 135.155 29.3689 134.831 29.0191C134.506 28.6692 134.105 28.4005 133.628 28.2128C133.158 28.0251 132.612 27.9312 131.989 27.9312H129.443V27.0353H131.887C132.723 27.0353 133.448 27.1633 134.063 27.4193C134.677 27.6752 135.189 28.0251 135.599 28.4687C136.008 28.9039 136.311 29.3945 136.507 29.9405C136.703 30.4866 136.802 31.0412 136.802 31.6043V31.8475C136.802 32.402 136.703 32.9524 136.507 33.4984C136.311 34.0445 136.012 34.5436 135.611 34.9958C135.21 35.4395 134.698 35.7978 134.076 36.0709C133.461 36.3354 132.732 36.4676 131.887 36.4676H129.443ZM128.726 36.4676V27.0353H129.699V36.4676H128.726Z" fill="#FF620A"/>
<path d="M138.925 36.4164V27.0737H139.898V36.4164H138.925Z" fill="#FF620A"/>
<path d="M146.932 36.634C146.121 36.634 145.417 36.4889 144.82 36.1988C144.223 35.9087 143.728 35.5248 143.336 35.047C142.943 34.5692 142.649 34.0487 142.452 33.4856C142.256 32.9225 142.158 32.3722 142.158 31.8347V31.6043C142.158 31.0326 142.256 30.4653 142.452 29.9021C142.657 29.3305 142.96 28.8143 143.361 28.3536C143.762 27.8928 144.261 27.5259 144.859 27.2529C145.456 26.9713 146.147 26.8306 146.932 26.8306C147.725 26.8306 148.416 26.9713 149.005 27.2529C149.602 27.5259 150.102 27.8928 150.503 28.3536C150.904 28.8143 151.202 29.3305 151.398 29.9021C151.603 30.4653 151.706 31.0326 151.706 31.6043V31.8475C151.706 32.385 151.607 32.9353 151.411 33.4984C151.224 34.053 150.929 34.5692 150.528 35.047C150.136 35.5248 149.641 35.9087 149.044 36.1988C148.446 36.4889 147.742 36.634 146.932 36.634ZM146.932 35.7381C147.529 35.7381 148.062 35.6315 148.532 35.4181C149.001 35.1963 149.398 34.8977 149.722 34.5223C150.046 34.1383 150.294 33.7075 150.464 33.2297C150.635 32.7519 150.72 32.2527 150.72 31.7323C150.72 31.1862 150.635 30.6743 150.464 30.1965C150.294 29.7187 150.042 29.2964 149.709 28.9295C149.385 28.5541 148.988 28.2597 148.519 28.0464C148.05 27.8331 147.521 27.7264 146.932 27.7264C146.352 27.7264 145.827 27.8331 145.358 28.0464C144.888 28.2597 144.487 28.5541 144.155 28.9295C143.83 29.2964 143.579 29.7187 143.4 30.1965C143.229 30.6743 143.144 31.1862 143.144 31.7323C143.144 32.2527 143.229 32.7519 143.4 33.2297C143.57 33.7075 143.818 34.1383 144.142 34.5223C144.466 34.8977 144.863 35.1963 145.332 35.4181C145.81 35.6315 146.343 35.7381 146.932 35.7381Z" fill="#FF620A"/>
<path d="M47.35 20.4543V4.43634H53.2525L59.2867 17.536H60.0327L59.5939 17.931V4.43634H62.973V20.4543H57.0266L50.9924 7.35469H50.2464L50.6852 6.95973V20.4543H47.35Z" fill="white"/>
<path d="M66.5711 20.4543V4.43634H70.0819V20.4543H66.5711ZM69.643 20.4543V17.4702H76.6426V20.4543H69.643ZM69.643 13.8058V10.8216H76.138V13.8058H69.643ZM69.643 7.42052V4.43634H76.4891V7.42052H69.643Z" fill="white"/>
<path d="M86.3138 20.8712C84.8071 20.8712 83.5271 20.5933 82.4739 20.0374C81.4352 19.4669 80.6453 18.6624 80.1041 17.6238C79.5628 16.5852 79.2922 15.3564 79.2922 13.9374V4.43634H82.8908V14.0691C82.8908 14.7712 83.0224 15.3856 83.2857 15.9123C83.5637 16.4242 83.9513 16.8192 84.4487 17.0971C84.9607 17.3751 85.5824 17.5141 86.3138 17.5141C87.0598 17.5141 87.6815 17.3751 88.1789 17.0971C88.6909 16.8192 89.0785 16.4242 89.3418 15.9123C89.6052 15.4003 89.7368 14.7859 89.7368 14.0691V4.43634H93.3354V13.9374C93.3354 15.3564 93.0648 16.5852 92.5235 17.6238C91.9823 18.6624 91.1923 19.4669 90.1537 20.0374C89.1151 20.5933 87.8351 20.8712 86.3138 20.8712Z" fill="white"/>
<path d="M96.6348 20.4543V4.43634H100.146V20.4543H96.6348ZM99.7067 20.4543V17.4702H106.706V20.4543H99.7067ZM99.7067 13.8058V10.8216H106.202V13.8058H99.7067ZM99.7067 7.42052V4.43634H106.553V7.42052H99.7067Z" fill="white"/>
<path d="M109.663 20.4543V4.30469H113.262V20.4543H109.663ZM119.384 20.4543L114.688 13.5644H118.638L123.553 20.4543H119.384ZM112.296 15.3198V12.4892H116.246C116.772 12.4892 117.226 12.3868 117.606 12.182C118.001 11.9626 118.301 11.6627 118.506 11.2824C118.725 10.8874 118.835 10.4339 118.835 9.92196C118.835 9.40997 118.725 8.9638 118.506 8.58347C118.301 8.1885 118.001 7.88862 117.606 7.68383C117.226 7.4644 116.772 7.35469 116.246 7.35469H112.296V4.30469H115.961C117.292 4.30469 118.447 4.50948 119.428 4.91908C120.408 5.31404 121.161 5.90649 121.688 6.69642C122.214 7.48635 122.478 8.48107 122.478 9.68059V10.0317C122.478 11.2166 122.207 12.204 121.666 12.9939C121.139 13.7692 120.386 14.3543 119.406 14.7493C118.44 15.1296 117.292 15.3198 115.961 15.3198H112.296Z" fill="white"/>
<path d="M128.924 20.4543L124.053 4.43634H127.761L131.623 17.9529L130.789 17.536H133.027L132.15 17.9529L135.726 4.43634H139.325L134.783 20.4543H128.924Z" fill="white"/>
<path d="M141.634 20.4543V4.43634H145.145V20.4543H141.634ZM144.706 20.4543V17.4702H151.706V20.4543H144.706ZM144.706 13.8058V10.8216H151.201V13.8058H144.706ZM144.706 7.42052V4.43634H151.552V7.42052H144.706Z" fill="white"/>
</svg>
