<svg width="612" height="160" viewBox="0 0 612 160" fill="none" xmlns="http://www.w3.org/2000/svg">
<path d="M71.6787 103.36C72.1055 103.893 72.1588 104.64 71.7854 105.227C71.1452 106.24 70.5583 107.253 69.9714 108.267C66.6103 114.08 63.8361 120.213 61.6487 126.56C61.3286 127.413 60.1548 127.52 59.728 126.72C54.1262 116.8 46.1768 108.427 36.4669 102.24C26.0101 95.6267 14.0594 91.9467 1.68195 91.5733C0.828333 91.5733 0.134766 90.8267 0.134766 89.9733V70.0267C0.134766 69.1733 0.828333 68.48 1.68195 68.4267C14.0594 68.0533 26.0101 64.3733 36.4669 57.76C46.1235 51.6267 54.1262 43.2 59.728 33.28C60.2082 32.48 61.3819 32.5867 61.6487 33.44C63.8361 39.7867 66.6103 45.92 69.9714 51.7333C70.5583 52.7467 71.1985 53.76 71.7854 54.7733C72.1588 55.36 72.1055 56.1066 71.6787 56.64C64.2629 65.9733 55.2999 73.6533 44.9497 79.52L44.1495 80L44.9497 80.48C55.2999 86.3466 64.3162 94.0267 71.6787 103.36Z" fill="#1A1A1A"/>
<path d="M160.135 70.0267V89.9733C160.135 90.8267 159.441 91.52 158.588 91.5733C122.202 92.6933 92.8057 122.08 91.6853 158.453C91.6853 159.307 90.9384 160 90.0847 160H70.1848C69.2778 160 68.5842 159.253 68.5842 158.4C69.3311 126.24 87.0971 96.5333 115.213 80.48L116.013 80L115.213 79.52C87.0437 63.4667 69.3311 33.76 68.5842 1.6C68.5842 0.693333 69.2778 0 70.1848 0H90.0847C90.9384 0 91.6319 0.693333 91.6853 1.54667C92.8057 37.92 122.202 67.3067 158.588 68.4267C159.441 68.4267 160.135 69.1733 160.135 70.0267Z" fill="#FF620A"/>
<path d="M193.957 144.51V140.898H204.226C206.772 140.898 208.991 140.485 210.884 139.659C212.81 138.833 214.427 137.715 215.735 136.305C217.042 134.86 218.023 133.208 218.676 131.35C219.33 129.493 219.657 127.514 219.657 125.416C219.657 123.248 219.313 121.236 218.625 119.378C217.971 117.52 216.99 115.886 215.683 114.475C214.376 113.064 212.759 111.981 210.832 111.224C208.94 110.467 206.738 110.088 204.226 110.088H193.957V106.476H203.814C207.185 106.476 210.11 106.992 212.587 108.024C215.064 109.056 217.128 110.467 218.78 112.256C220.431 114.011 221.652 115.989 222.444 118.191C223.235 120.393 223.631 122.629 223.631 124.9V125.88C223.631 128.116 223.235 130.336 222.444 132.537C221.652 134.739 220.448 136.752 218.831 138.575C217.214 140.364 215.15 141.809 212.638 142.91C210.161 143.977 207.22 144.51 203.814 144.51H193.957ZM191.067 144.51V106.476H194.989V144.51H191.067Z" fill="#FF620A"/>
<path d="M232.09 144.304V106.631H236.012V144.304H232.09ZM235.083 144.304V140.743H253.92V144.304H235.083ZM235.083 126.912V123.403H252.165V126.912H235.083ZM235.083 110.192V106.631H253.352V110.192H235.083Z" fill="#FF620A"/>
<path d="M274.808 145.181C271.642 145.181 268.976 144.682 266.808 143.684C264.641 142.652 262.99 141.242 261.854 139.453C260.753 137.629 260.203 135.582 260.203 133.312H264.125C264.125 134.757 264.469 136.115 265.157 137.388C265.88 138.627 267.015 139.642 268.563 140.433C270.146 141.19 272.227 141.569 274.808 141.569C277.181 141.569 279.143 141.225 280.691 140.536C282.273 139.848 283.443 138.919 284.2 137.75C284.991 136.58 285.387 135.273 285.387 133.828C285.387 132.004 284.664 130.49 283.219 129.286C281.809 128.048 279.676 127.308 276.82 127.067L272.485 126.654C269.251 126.379 266.671 125.381 264.744 123.661C262.852 121.906 261.906 119.601 261.906 116.746C261.906 114.578 262.422 112.669 263.454 111.017C264.486 109.366 265.948 108.059 267.841 107.095C269.767 106.132 272.072 105.65 274.756 105.65C277.474 105.65 279.796 106.149 281.723 107.147C283.684 108.11 285.181 109.452 286.213 111.172C287.245 112.892 287.761 114.888 287.761 117.159H283.839C283.839 115.782 283.529 114.492 282.91 113.288C282.291 112.084 281.31 111.121 279.968 110.398C278.626 109.641 276.889 109.263 274.756 109.263C272.726 109.263 271.04 109.607 269.698 110.295C268.391 110.983 267.411 111.895 266.757 113.03C266.138 114.165 265.828 115.404 265.828 116.746C265.828 118.432 266.43 119.859 267.634 121.029C268.838 122.199 270.576 122.87 272.846 123.042L277.181 123.455C279.727 123.661 281.895 124.229 283.684 125.158C285.507 126.052 286.901 127.239 287.864 128.719C288.827 130.163 289.309 131.867 289.309 133.828C289.309 136.029 288.707 137.991 287.503 139.711C286.333 141.431 284.664 142.773 282.497 143.736C280.329 144.699 277.766 145.181 274.808 145.181Z" fill="#FF620A"/>
<path d="M298.818 144.304V106.631H302.741V144.304H298.818Z" fill="#FF620A"/>
<path d="M331.053 145.181C327.956 145.181 325.204 144.665 322.796 143.633C320.422 142.601 318.426 141.19 316.809 139.401C315.192 137.578 313.954 135.496 313.094 133.157C312.268 130.783 311.855 128.288 311.855 125.674V124.745C311.855 122.336 312.251 119.997 313.042 117.726C313.868 115.456 315.055 113.408 316.603 111.585C318.151 109.762 320.078 108.317 322.383 107.25C324.688 106.184 327.303 105.65 330.227 105.65C333.289 105.65 336.007 106.235 338.381 107.405C340.755 108.54 342.664 110.14 344.109 112.204C345.589 114.269 346.449 116.66 346.69 119.378H342.716C342.441 117.176 341.701 115.318 340.497 113.804C339.327 112.29 337.848 111.155 336.059 110.398C334.27 109.641 332.326 109.263 330.227 109.263C328.025 109.263 326.03 109.658 324.241 110.45C322.452 111.241 320.938 112.359 319.699 113.804C318.461 115.249 317.498 116.952 316.809 118.913C316.156 120.84 315.829 122.956 315.829 125.261C315.829 127.704 316.173 129.94 316.861 131.97C317.549 133.965 318.547 135.685 319.854 137.13C321.162 138.575 322.744 139.694 324.602 140.485C326.494 141.276 328.645 141.672 331.053 141.672C334.012 141.672 336.609 141.104 338.846 139.969C341.116 138.799 342.871 137.268 344.109 135.376L342.561 140.227V129.08H346.277V138.472C344.66 140.571 342.561 142.222 339.981 143.426C337.401 144.596 334.425 145.181 331.053 145.181ZM329.66 129.905V126.603H349.631V129.905H329.66Z" fill="#FF620A"/>
<path d="M357.478 144.304V106.631H364.032L384.675 140.743H386.327L385.294 141.569V106.631H389.062V144.304H382.456L361.813 110.192H360.162L361.194 109.366V144.304H357.478Z" fill="#FF620A"/>
<path d="M424.941 145.181C421.776 145.181 419.109 144.682 416.942 143.684C414.774 142.652 413.123 141.242 411.988 139.453C410.887 137.629 410.336 135.582 410.336 133.312H414.258C414.258 134.757 414.602 136.115 415.291 137.388C416.013 138.627 417.148 139.642 418.697 140.433C420.279 141.19 422.361 141.569 424.941 141.569C427.315 141.569 429.276 141.225 430.824 140.536C432.407 139.848 433.577 138.919 434.333 137.75C435.125 136.58 435.52 135.273 435.52 133.828C435.52 132.004 434.798 130.49 433.353 129.286C431.942 128.048 429.809 127.308 426.954 127.067L422.619 126.654C419.385 126.379 416.804 125.381 414.878 123.661C412.985 121.906 412.039 119.601 412.039 116.746C412.039 114.578 412.555 112.669 413.587 111.017C414.62 109.366 416.082 108.059 417.974 107.095C419.901 106.132 422.206 105.65 424.889 105.65C427.607 105.65 429.93 106.149 431.856 107.147C433.817 108.11 435.314 109.452 436.346 111.172C437.378 112.892 437.894 114.888 437.894 117.159H433.972C433.972 115.782 433.663 114.492 433.043 113.288C432.424 112.084 431.443 111.121 430.102 110.398C428.76 109.641 427.022 109.263 424.889 109.263C422.86 109.263 421.174 109.607 419.832 110.295C418.525 110.983 417.544 111.895 416.89 113.03C416.271 114.165 415.961 115.404 415.961 116.746C415.961 118.432 416.563 119.859 417.768 121.029C418.972 122.199 420.709 122.87 422.98 123.042L427.315 123.455C429.861 123.661 432.028 124.229 433.817 125.158C435.641 126.052 437.034 127.239 437.997 128.719C438.961 130.163 439.442 131.867 439.442 133.828C439.442 136.029 438.84 137.991 437.636 139.711C436.467 141.431 434.798 142.773 432.63 143.736C430.463 144.699 427.9 145.181 424.941 145.181Z" fill="#FF620A"/>
<path d="M455.27 144.304V109.211H459.192V144.304H455.27ZM443.503 110.192V106.631H470.958V110.192H443.503Z" fill="#FF620A"/>
<path d="M492.836 145.181C489.396 145.181 486.54 144.527 484.269 143.22C481.999 141.913 480.296 140.089 479.16 137.75C478.025 135.376 477.457 132.658 477.457 129.596V106.631H481.379V130.06C481.379 132.365 481.792 134.378 482.618 136.098C483.478 137.819 484.751 139.16 486.437 140.124C488.157 141.087 490.29 141.569 492.836 141.569C495.348 141.569 497.446 141.104 499.132 140.175C500.818 139.212 502.091 137.87 502.951 136.15C503.811 134.395 504.241 132.365 504.241 130.06V106.631H508.163V129.596C508.163 132.658 507.596 135.376 506.46 137.75C505.325 140.089 503.622 141.913 501.351 143.22C499.115 144.527 496.277 145.181 492.836 145.181Z" fill="#FF620A"/>
<path d="M522.093 144.51V140.898H532.363C534.909 140.898 537.128 140.485 539.02 139.659C540.947 138.833 542.564 137.715 543.871 136.305C545.179 134.86 546.159 133.208 546.813 131.35C547.467 129.493 547.793 127.514 547.793 125.416C547.793 123.248 547.449 121.236 546.761 119.378C546.108 117.52 545.127 115.886 543.82 114.475C542.512 113.064 540.895 111.981 538.969 111.224C537.076 110.467 534.874 110.088 532.363 110.088H522.093V106.476H531.95C535.322 106.476 538.246 106.992 540.723 108.024C543.2 109.056 545.265 110.467 546.916 112.256C548.567 114.011 549.789 115.989 550.58 118.191C551.371 120.393 551.767 122.629 551.767 124.9V125.88C551.767 128.116 551.371 130.336 550.58 132.537C549.789 134.739 548.585 136.752 546.968 138.575C545.351 140.364 543.286 141.809 540.775 142.91C538.298 143.977 535.356 144.51 531.95 144.51H522.093ZM519.203 144.51V106.476H523.125V144.51H519.203Z" fill="#FF620A"/>
<path d="M560.33 144.304V106.631H564.252V144.304H560.33Z" fill="#FF620A"/>
<path d="M592.616 145.181C589.347 145.181 586.509 144.596 584.101 143.426C581.692 142.257 579.697 140.708 578.114 138.782C576.532 136.855 575.345 134.757 574.554 132.486C573.762 130.215 573.367 127.996 573.367 125.829V124.9C573.367 122.594 573.762 120.307 574.554 118.036C575.379 115.731 576.601 113.649 578.218 111.791C579.835 109.934 581.847 108.454 584.256 107.353C586.664 106.218 589.451 105.65 592.616 105.65C595.816 105.65 598.602 106.218 600.976 107.353C603.384 108.454 605.397 109.934 607.014 111.791C608.631 113.649 609.835 115.731 610.627 118.036C611.452 120.307 611.865 122.594 611.865 124.9V125.88C611.865 128.048 611.47 130.267 610.678 132.537C609.921 134.774 608.734 136.855 607.117 138.782C605.535 140.708 603.539 142.257 601.131 143.426C598.723 144.596 595.884 145.181 592.616 145.181ZM592.616 141.569C595.024 141.569 597.174 141.139 599.067 140.278C600.959 139.384 602.559 138.18 603.866 136.666C605.174 135.118 606.171 133.38 606.859 131.454C607.547 129.527 607.892 127.514 607.892 125.416C607.892 123.214 607.547 121.15 606.859 119.223C606.171 117.296 605.156 115.593 603.815 114.114C602.507 112.6 600.907 111.413 599.015 110.553C597.123 109.693 594.99 109.263 592.616 109.263C590.276 109.263 588.161 109.693 586.268 110.553C584.376 111.413 582.759 112.6 581.417 114.114C580.11 115.593 579.095 117.296 578.372 119.223C577.684 121.15 577.34 123.214 577.34 125.416C577.34 127.514 577.684 129.527 578.372 131.454C579.061 133.38 580.058 135.118 581.366 136.666C582.673 138.18 584.273 139.384 586.165 140.278C588.092 141.139 590.242 141.569 592.616 141.569Z" fill="#FF620A"/>
<path d="M191.067 79.9399V15.3497H214.868L239.2 68.1721H242.208L240.438 69.7648V15.3497H254.064V79.9399H230.086L205.754 27.1175H202.746L204.516 25.5249V79.9399H191.067Z" fill="black"/>
<path d="M268.573 79.9399V15.3497H282.73V79.9399H268.573ZM280.96 79.9399V67.9067H309.185V79.9399H280.96ZM280.96 53.1306V41.0973H307.15V53.1306H280.96ZM280.96 27.383V15.3497H308.566V27.383H280.96Z" fill="black"/>
<path d="M348.182 81.6211C342.107 81.6211 336.946 80.5003 332.699 78.2588C328.51 75.9584 325.325 72.7141 323.143 68.5261C320.96 64.338 319.869 59.3831 319.869 53.6615V15.3497H334.38V54.1923C334.38 57.0237 334.911 59.5011 335.972 61.6246C337.093 63.6892 338.656 65.2818 340.662 66.4025C342.726 67.5233 345.233 68.0837 348.182 68.0837C351.191 68.0837 353.698 67.5233 355.703 66.4025C357.768 65.2818 359.331 63.6892 360.393 61.6246C361.454 59.5601 361.985 57.0827 361.985 54.1923V15.3497H376.496V53.6615C376.496 59.3831 375.405 64.338 373.222 68.5261C371.04 72.7141 367.854 75.9584 363.666 78.2588C359.478 80.5003 354.317 81.6211 348.182 81.6211Z" fill="black"/>
<path d="M389.8 79.9399V15.3497H403.957V79.9399H389.8ZM402.188 79.9399V67.9067H430.413V79.9399H402.188ZM402.188 53.1306V41.0973H428.378V53.1306H402.188ZM402.188 27.383V15.3497H429.793V27.383H402.188Z" fill="black"/>
<path d="M442.335 79.9399V14.8188H456.846V79.9399H442.335ZM481.532 79.9399L462.597 52.1573H478.523L498.343 79.9399H481.532ZM452.953 59.2357V47.8218H468.879C471.003 47.8218 472.831 47.4089 474.365 46.5831C475.958 45.6983 477.167 44.4891 477.993 42.9554C478.877 41.3628 479.32 39.5342 479.32 37.4697C479.32 35.4051 478.877 33.606 477.993 32.0724C477.167 30.4798 475.958 29.2705 474.365 28.4447C472.831 27.5599 471.003 27.1175 468.879 27.1175H452.953V14.8188H467.729C473.097 14.8188 477.757 15.6447 481.709 17.2963C485.661 18.8889 488.699 21.2779 490.822 24.4631C492.946 27.6484 494.007 31.6595 494.007 36.4964V37.9121C494.007 42.69 492.916 46.6716 490.734 49.8568C488.61 52.9831 485.572 55.3426 481.62 56.9352C477.727 58.4689 473.097 59.2357 467.729 59.2357H452.953Z" fill="black"/>
<path d="M520.003 79.9399L500.36 15.3497H515.313L530.886 69.8533L527.523 68.1721H536.548L533.009 69.8533L547.431 15.3497H561.942L543.627 79.9399H520.003Z" fill="black"/>
<path d="M571.253 79.9399V15.3497H585.41V79.9399H571.253ZM583.64 79.9399V67.9067H611.865V79.9399H583.64ZM583.64 53.1306V41.0973H609.83V53.1306H583.64ZM583.64 27.383V15.3497H611.246V27.383H583.64Z" fill="black"/>
</svg>
