<svg width="138" height="40" viewBox="0 0 138 40" fill="none" xmlns="http://www.w3.org/2000/svg">
<rect width="40" height="40" rx="8" fill="black"/>
<path d="M18.2182 24.088C18.2929 24.1813 18.3022 24.312 18.2369 24.4147C18.1248 24.592 18.0221 24.7693 17.9194 24.9467C17.3312 25.964 16.8457 27.0373 16.4629 28.148C16.4069 28.2973 16.2015 28.316 16.1268 28.176C15.1465 26.44 13.7554 24.9747 12.0561 23.892C10.2262 22.7347 8.13481 22.0907 5.96876 22.0253C5.81937 22.0253 5.698 21.8947 5.698 21.7453V18.2547C5.698 18.1053 5.81937 17.984 5.96876 17.9747C8.13481 17.9093 10.2262 17.2653 12.0561 16.108C13.746 15.0347 15.1465 13.56 16.1268 11.824C16.2108 11.684 16.4162 11.7027 16.4629 11.852C16.8457 12.9627 17.3312 14.036 17.9194 15.0533C18.0221 15.2307 18.1342 15.408 18.2369 15.5853C18.3022 15.688 18.2929 15.8187 18.2182 15.912C16.9204 17.5453 15.3519 18.8893 13.5406 19.916L13.4006 20L13.5406 20.084C15.3519 21.1107 16.9298 22.4547 18.2182 24.088Z" fill="white"/>
<path d="M34.3019 18.2547V21.7453C34.3019 21.8947 34.1805 22.016 34.0311 22.0253C27.6637 22.2213 22.5193 27.364 22.3232 33.7293C22.3232 33.8787 22.1925 34 22.0431 34H18.5606C18.4019 34 18.2805 33.8693 18.2805 33.72C18.4112 28.092 21.5203 22.8933 26.4406 20.084L26.5806 20L26.4406 19.916C21.5109 17.1067 18.4112 11.908 18.2805 6.28C18.2805 6.12133 18.4019 6 18.5606 6H22.0431C22.1925 6 22.3139 6.12133 22.3232 6.27067C22.5193 12.636 27.6637 17.7787 34.0311 17.9747C34.1805 17.9747 34.3019 18.1053 34.3019 18.2547Z" fill="#FF620A"/>
<path d="M48.0209 33.7383V32.9656H50.2174C50.7619 32.9656 51.2366 32.8773 51.6413 32.7007C52.0533 32.5241 52.3992 32.285 52.6788 31.9833C52.9584 31.6742 53.1681 31.321 53.308 30.9237C53.4478 30.5263 53.5177 30.1032 53.5177 29.6543C53.5177 29.1908 53.4441 28.7603 53.2969 28.3629C53.1571 27.9656 52.9474 27.6161 52.6678 27.3144C52.3882 27.0127 52.0423 26.7809 51.6302 26.619C51.2255 26.4571 50.7546 26.3762 50.2174 26.3762H48.0209V25.6035H50.1291C50.8502 25.6035 51.4757 25.7139 52.0055 25.9347C52.5353 26.1554 52.9768 26.4571 53.33 26.8398C53.6832 27.215 53.9445 27.6381 54.1137 28.1091C54.2829 28.58 54.3676 29.0583 54.3676 29.544V29.7537C54.3676 30.232 54.2829 30.7066 54.1137 31.1775C53.9445 31.6485 53.6869 32.0789 53.3411 32.4689C52.9952 32.8516 52.5537 33.1606 52.0166 33.3961C51.4867 33.6242 50.8576 33.7383 50.1291 33.7383H48.0209ZM47.4028 33.7383V25.6035H48.2417V33.7383H47.4028Z" fill="#FF620A"/>
<path d="M56.1769 33.6941V25.6367H57.0157V33.6941H56.1769ZM56.8171 33.6941V32.9325H60.8458V33.6941H56.8171ZM56.8171 29.9744V29.2239H60.4705V29.9744H56.8171ZM56.8171 26.3983V25.6367H60.7244V26.3983H56.8171Z" fill="#FF620A"/>
<path d="M65.3133 33.8818C64.6363 33.8818 64.066 33.7751 63.6024 33.5617C63.1388 33.3409 62.7856 33.0392 62.5428 32.6566C62.3073 32.2666 62.1896 31.8288 62.1896 31.3431H63.0285C63.0285 31.6522 63.1021 31.9428 63.2492 32.2151C63.4037 32.48 63.6466 32.697 63.9777 32.8663C64.3162 33.0282 64.7614 33.1091 65.3133 33.1091C65.821 33.1091 66.2404 33.0355 66.5715 32.8884C66.91 32.7412 67.1602 32.5425 67.3221 32.2923C67.4913 32.0421 67.576 31.7625 67.576 31.4535C67.576 31.0635 67.4214 30.7397 67.1124 30.4822C66.8107 30.2173 66.3545 30.0591 65.7437 30.0075L64.8166 29.9192C64.1249 29.8604 63.573 29.647 63.1609 29.2791C62.7562 28.9038 62.5539 28.4108 62.5539 27.8C62.5539 27.3364 62.6642 26.9281 62.885 26.5749C63.1057 26.2216 63.4185 25.942 63.8232 25.736C64.2352 25.53 64.7283 25.4269 65.3022 25.4269C65.8835 25.4269 66.3802 25.5336 66.7923 25.747C67.2117 25.9531 67.5318 26.24 67.7526 26.608C67.9733 26.9759 68.0837 27.4027 68.0837 27.8883H67.2448C67.2448 27.594 67.1786 27.3181 67.0462 27.0605C66.9137 26.803 66.704 26.5969 66.417 26.4424C66.13 26.2805 65.7584 26.1996 65.3022 26.1996C64.8681 26.1996 64.5075 26.2732 64.2205 26.4203C63.9409 26.5675 63.7312 26.7625 63.5914 27.0053C63.4589 27.2481 63.3927 27.513 63.3927 27.8C63.3927 28.1606 63.5215 28.466 63.779 28.7161C64.0366 28.9663 64.4082 29.1098 64.8938 29.1466L65.821 29.2349C66.3655 29.2791 66.8291 29.4005 67.2117 29.5992C67.6017 29.7905 67.8997 30.0443 68.1058 30.3608C68.3118 30.6698 68.4148 31.034 68.4148 31.4535C68.4148 31.9244 68.2861 32.3438 68.0285 32.7118C67.7783 33.0797 67.4214 33.3667 66.9579 33.5727C66.4943 33.7787 65.9461 33.8818 65.3133 33.8818Z" fill="#FF620A"/>
<path d="M70.4487 33.6941V25.6367H71.2875V33.6941H70.4487Z" fill="#FF620A"/>
<path d="M77.343 33.8818C76.6807 33.8818 76.092 33.7714 75.5769 33.5506C75.0692 33.3299 74.6424 33.0282 74.2966 32.6455C73.9507 32.2555 73.6858 31.8104 73.5019 31.31C73.3253 30.8023 73.237 30.2688 73.237 29.7095V29.5109C73.237 28.9958 73.3216 28.4954 73.4908 28.0097C73.6674 27.5241 73.9213 27.0863 74.2524 26.6963C74.5836 26.3063 74.9956 25.9972 75.4886 25.7691C75.9817 25.541 76.5409 25.4269 77.1664 25.4269C77.8213 25.4269 78.4026 25.552 78.9103 25.8022C79.418 26.045 79.8264 26.3872 80.1355 26.8287C80.4519 27.2702 80.6358 27.7816 80.6874 28.3629H79.8375C79.7786 27.892 79.6204 27.4947 79.3628 27.1709C79.1127 26.8471 78.7962 26.6043 78.4136 26.4424C78.031 26.2805 77.6152 26.1996 77.1664 26.1996C76.6954 26.1996 76.2686 26.2842 75.886 26.4534C75.5034 26.6227 75.1796 26.8618 74.9147 27.1709C74.6498 27.4799 74.4437 27.8442 74.2966 28.2636C74.1568 28.6757 74.0869 29.1282 74.0869 29.6212C74.0869 30.1437 74.1604 30.622 74.3076 31.0561C74.4548 31.4829 74.6682 31.8508 74.9478 32.1599C75.2274 32.4689 75.5659 32.7081 75.9633 32.8773C76.368 33.0466 76.8279 33.1312 77.343 33.1312C77.9758 33.1312 78.5313 33.0098 79.0096 32.767C79.4953 32.5168 79.8706 32.1893 80.1355 31.7846L79.8043 32.8221V30.438H80.5991V32.4469C80.2532 32.8957 79.8043 33.2489 79.2525 33.5065C78.7006 33.7567 78.0641 33.8818 77.343 33.8818ZM77.0449 30.6146V29.9082H81.3165V30.6146H77.0449Z" fill="#FF620A"/>
<path d="M82.9948 33.6941V25.6367H84.3966L88.8116 32.9325H89.1648L88.9441 33.1091V25.6367H89.7498V33.6941H88.337L83.922 26.3983H83.5688L83.7895 26.2216V33.6941H82.9948Z" fill="#FF620A"/>
<path d="M97.4236 33.8818C96.7467 33.8818 96.1764 33.7751 95.7128 33.5617C95.2492 33.3409 94.896 33.0392 94.6532 32.6566C94.4177 32.2666 94.3 31.8288 94.3 31.3431H95.1389C95.1389 31.6522 95.2124 31.9428 95.3596 32.2151C95.5141 32.48 95.757 32.697 96.0881 32.8663C96.4266 33.0282 96.8718 33.1091 97.4236 33.1091C97.9314 33.1091 98.3508 33.0355 98.6819 32.8884C99.0204 32.7412 99.2706 32.5425 99.4325 32.2923C99.6017 32.0421 99.6864 31.7625 99.6864 31.4535C99.6864 31.0635 99.5318 30.7397 99.2228 30.4822C98.9211 30.2173 98.4649 30.0591 97.8541 30.0075L96.927 29.9192C96.2353 29.8604 95.6834 29.647 95.2713 29.2791C94.8666 28.9038 94.6642 28.4108 94.6642 27.8C94.6642 27.3364 94.7746 26.9281 94.9954 26.5749C95.2161 26.2216 95.5289 25.942 95.9336 25.736C96.3456 25.53 96.8387 25.4269 97.4126 25.4269C97.9939 25.4269 98.4906 25.5336 98.9027 25.747C99.3221 25.9531 99.6422 26.24 99.863 26.608C100.084 26.9759 100.194 27.4027 100.194 27.8883H99.3552C99.3552 27.594 99.289 27.3181 99.1566 27.0605C99.0241 26.803 98.8144 26.5969 98.5274 26.4424C98.2404 26.2805 97.8688 26.1996 97.4126 26.1996C96.9785 26.1996 96.6179 26.2732 96.3309 26.4203C96.0513 26.5675 95.8416 26.7625 95.7018 27.0053C95.5693 27.2481 95.5031 27.513 95.5031 27.8C95.5031 28.1606 95.6319 28.466 95.8894 28.7161C96.147 28.9663 96.5186 29.1098 97.0042 29.1466L97.9314 29.2349C98.4759 29.2791 98.9395 29.4005 99.3221 29.5992C99.7121 29.7905 100.01 30.0443 100.216 30.3608C100.422 30.6698 100.525 31.034 100.525 31.4535C100.525 31.9244 100.396 32.3438 100.139 32.7118C99.8887 33.0797 99.5318 33.3667 99.0683 33.5727C98.6047 33.7787 98.0565 33.8818 97.4236 33.8818Z" fill="#FF620A"/>
<path d="M103.91 33.6941V26.1885H104.749V33.6941H103.91ZM101.394 26.3983V25.6367H107.266V26.3983H101.394Z" fill="#FF620A"/>
<path d="M111.945 33.8818C111.209 33.8818 110.598 33.7419 110.113 33.4623C109.627 33.1827 109.263 32.7927 109.02 32.2923C108.777 31.7846 108.656 31.2033 108.656 30.5484V25.6367H109.495V30.6477C109.495 31.1407 109.583 31.5712 109.76 31.9391C109.944 32.3071 110.216 32.594 110.576 32.8001C110.944 33.0061 111.4 33.1091 111.945 33.1091C112.482 33.1091 112.931 33.0098 113.292 32.8111C113.652 32.6051 113.924 32.3181 114.108 31.9502C114.292 31.5749 114.384 31.1407 114.384 30.6477V25.6367H115.223V30.5484C115.223 31.2033 115.102 31.7846 114.859 32.2923C114.616 32.7927 114.252 33.1827 113.766 33.4623C113.288 33.7419 112.681 33.8818 111.945 33.8818Z" fill="#FF620A"/>
<path d="M118.202 33.7383V32.9656H120.399C120.943 32.9656 121.418 32.8773 121.823 32.7007C122.235 32.5241 122.581 32.285 122.86 31.9833C123.14 31.6742 123.35 31.321 123.489 30.9237C123.629 30.5263 123.699 30.1032 123.699 29.6543C123.699 29.1908 123.626 28.7603 123.478 28.3629C123.339 27.9656 123.129 27.6161 122.849 27.3144C122.57 27.0127 122.224 26.7809 121.812 26.619C121.407 26.4571 120.936 26.3762 120.399 26.3762H118.202V25.6035H120.311C121.032 25.6035 121.657 25.7139 122.187 25.9347C122.717 26.1554 123.158 26.4571 123.512 26.8398C123.865 27.215 124.126 27.6381 124.295 28.1091C124.464 28.58 124.549 29.0583 124.549 29.544V29.7537C124.549 30.232 124.464 30.7066 124.295 31.1775C124.126 31.6485 123.868 32.0789 123.523 32.4689C123.177 32.8516 122.735 33.1606 122.198 33.3961C121.668 33.6242 121.039 33.7383 120.311 33.7383H118.202ZM117.584 33.7383V25.6035H118.423V33.7383H117.584Z" fill="#FF620A"/>
<path d="M126.38 33.6941V25.6367H127.219V33.6941H126.38Z" fill="#FF620A"/>
<path d="M133.286 33.8818C132.587 33.8818 131.98 33.7567 131.465 33.5065C130.95 33.2563 130.523 32.9252 130.184 32.5131C129.846 32.101 129.592 31.6522 129.423 31.1665C129.253 30.6808 129.169 30.2062 129.169 29.7426V29.544C129.169 29.051 129.253 28.5616 129.423 28.076C129.599 27.583 129.86 27.1378 130.206 26.7404C130.552 26.3431 130.983 26.0267 131.498 25.7912C132.013 25.5484 132.609 25.4269 133.286 25.4269C133.97 25.4269 134.566 25.5484 135.074 25.7912C135.589 26.0267 136.019 26.3431 136.365 26.7404C136.711 27.1378 136.969 27.583 137.138 28.076C137.315 28.5616 137.403 29.051 137.403 29.544V29.7537C137.403 30.2173 137.318 30.6919 137.149 31.1775C136.987 31.6558 136.733 32.101 136.387 32.5131C136.049 32.9252 135.622 33.2563 135.107 33.5065C134.592 33.7567 133.985 33.8818 133.286 33.8818ZM133.286 33.1091C133.801 33.1091 134.261 33.0171 134.665 32.8332C135.07 32.6419 135.412 32.3843 135.692 32.0605C135.972 31.7294 136.185 31.3578 136.332 30.9457C136.479 30.5337 136.553 30.1032 136.553 29.6543C136.553 29.1834 136.479 28.7419 136.332 28.3298C136.185 27.9178 135.968 27.5535 135.681 27.2371C135.401 26.9133 135.059 26.6595 134.654 26.4755C134.25 26.2916 133.794 26.1996 133.286 26.1996C132.785 26.1996 132.333 26.2916 131.928 26.4755C131.523 26.6595 131.178 26.9133 130.891 27.2371C130.611 27.5535 130.394 27.9178 130.239 28.3298C130.092 28.7419 130.019 29.1834 130.019 29.6543C130.019 30.1032 130.092 30.5337 130.239 30.9457C130.387 31.3578 130.6 31.7294 130.88 32.0605C131.159 32.3843 131.501 32.6419 131.906 32.8332C132.318 33.0171 132.778 33.1091 133.286 33.1091Z" fill="#FF620A"/>
<path d="M47.4028 19.928V6.11354H52.4934L57.6975 17.4112H58.3409L57.9624 17.7518V6.11354H60.8767V19.928H55.7483L50.5442 8.63043H49.9008L50.2793 8.2898V19.928H47.4028Z" fill="black"/>
<path d="M63.9798 19.928V6.11354H67.0076V19.928H63.9798ZM66.6291 19.928V17.3544H72.6659V19.928H66.6291ZM66.6291 14.1941V11.6204H72.2306V14.1941H66.6291ZM66.6291 8.6872V6.11354H72.5334V8.6872H66.6291Z" fill="black"/>
<path d="M81.0066 20.2876C79.7072 20.2876 78.6033 20.0479 77.6949 19.5685C76.7992 19.0765 76.1179 18.3826 75.6511 17.4868C75.1843 16.5911 74.9509 15.5314 74.9509 14.3076V6.11354H78.0545V14.4212C78.0545 15.0267 78.168 15.5566 78.3951 16.0108C78.6348 16.4523 78.9691 16.793 79.3981 17.0327C79.8396 17.2724 80.3758 17.3922 81.0066 17.3922C81.65 17.3922 82.1862 17.2724 82.6152 17.0327C83.0567 16.793 83.391 16.4523 83.6181 16.0108C83.8452 15.5692 83.9588 15.0393 83.9588 14.4212V6.11354H87.0623V14.3076C87.0623 15.5314 86.8289 16.5911 86.3621 17.4868C85.8953 18.3826 85.214 19.0765 84.3183 19.5685C83.4226 20.0479 82.3187 20.2876 81.0066 20.2876Z" fill="black"/>
<path d="M89.9078 19.928V6.11354H92.9357V19.928H89.9078ZM92.5572 19.928V17.3544H98.5939V19.928H92.5572ZM92.5572 14.1941V11.6204H98.1587V14.1941H92.5572ZM92.5572 8.6872V6.11354H98.4615V8.6872H92.5572Z" fill="black"/>
<path d="M101.144 19.928V6H104.247V19.928H101.144ZM109.527 19.928L105.478 13.9859H108.884L113.123 19.928H109.527ZM103.415 15.4998V13.0586H106.821C107.275 13.0586 107.666 12.9703 107.994 12.7937C108.335 12.6045 108.594 12.3458 108.77 12.0178C108.96 11.6772 109.054 11.2861 109.054 10.8445C109.054 10.403 108.96 10.0182 108.77 9.69017C108.594 9.34954 108.335 9.09091 107.994 8.91429C107.666 8.72505 107.275 8.63043 106.821 8.63043H103.415V6H106.575C107.723 6 108.72 6.17662 109.565 6.52987C110.41 6.8705 111.06 7.38145 111.514 8.06271C111.968 8.74398 112.196 9.60186 112.196 10.6364V10.9392C112.196 11.961 111.962 12.8126 111.495 13.4939C111.041 14.1625 110.391 14.6672 109.546 15.0078C108.714 15.3358 107.723 15.4998 106.575 15.4998H103.415Z" fill="black"/>
<path d="M117.755 19.928L113.554 6.11354H116.752L120.083 17.7707L119.364 17.4112H121.294L120.537 17.7707L123.622 6.11354H126.725L122.808 19.928H117.755Z" fill="black"/>
<path d="M128.717 19.928V6.11354H131.745V19.928H128.717ZM131.366 19.928V17.3544H137.403V19.928H131.366ZM131.366 14.1941V11.6204H136.968V14.1941H131.366ZM131.366 8.6872V6.11354H137.27V8.6872H131.366Z" fill="black"/>
</svg>
