<svg width="51" height="48" viewBox="0 0 51 48" fill="none" xmlns="http://www.w3.org/2000/svg">
<path opacity="0.2" d="M33.1525 27C33.1525 28.4834 32.6943 29.9334 31.8358 31.1668C30.9774 32.4001 29.7572 33.3614 28.3297 33.9291C26.9021 34.4968 25.3313 34.6453 23.8158 34.3559C22.3003 34.0665 20.9083 33.3522 19.8157 32.3033C18.7231 31.2544 17.979 29.918 17.6776 28.4632C17.3761 27.0083 17.5308 25.5003 18.1222 24.1299C18.7135 22.7594 19.7148 21.5881 20.9996 20.764C22.2843 19.9399 23.7948 19.5 25.34 19.5C27.412 19.5 29.3991 20.2902 30.8642 21.6967C32.3294 23.1032 33.1525 25.0109 33.1525 27ZM12.84 10.5C11.6038 10.5 10.3955 10.8519 9.36765 11.5112C8.33985 12.1705 7.53877 13.1075 7.06572 14.2039C6.59267 15.3003 6.4689 16.5067 6.71006 17.6705C6.95122 18.8344 7.54647 19.9035 8.42055 20.7426C9.29463 21.5818 10.4083 22.1532 11.6207 22.3847C12.833 22.6162 14.0897 22.4974 15.2317 22.0433C16.3738 21.5892 17.3499 20.8201 18.0367 19.8334C18.7234 18.8467 19.09 17.6867 19.09 16.5C19.09 14.9087 18.4315 13.3826 17.2594 12.2574C16.0873 11.1321 14.4976 10.5 12.84 10.5ZM37.84 10.5C36.6038 10.5 35.3955 10.8519 34.3677 11.5112C33.3398 12.1705 32.5388 13.1075 32.0657 14.2039C31.5927 15.3003 31.4689 16.5067 31.7101 17.6705C31.9512 18.8344 32.5465 19.9035 33.4206 20.7426C34.2946 21.5818 35.4083 22.1532 36.6207 22.3847C37.833 22.6162 39.0897 22.4974 40.2317 22.0433C41.3738 21.5892 42.3499 20.8201 43.0367 19.8334C43.7234 18.8467 44.09 17.6867 44.09 16.5C44.09 14.9087 43.4315 13.3826 42.2594 12.2574C41.0873 11.1321 39.4976 10.5 37.84 10.5Z" fill="#8E8E8E"/>
<path d="M48.1525 28.2C47.9883 28.3182 47.8015 28.4042 47.6027 28.453C47.404 28.5019 47.1971 28.5128 46.994 28.4849C46.7908 28.457 46.5954 28.391 46.4189 28.2907C46.2423 28.1903 46.0881 28.0576 45.965 27.9C45.0232 26.6847 43.7973 25.6987 42.3861 25.0213C40.9749 24.3439 39.4177 23.9941 37.8399 24C37.4255 24 37.0281 23.8419 36.7351 23.5606C36.4421 23.2793 36.2774 22.8978 36.2774 22.5C36.2774 22.1021 36.4421 21.7206 36.7351 21.4393C37.0281 21.158 37.4255 21 37.8399 21C38.7167 20.9999 39.5758 20.7638 40.3197 20.3185C41.0636 19.8732 41.6626 19.2365 42.0485 18.4808C42.4344 17.7251 42.5918 16.8806 42.5028 16.0433C42.4139 15.206 42.0821 14.4095 41.5452 13.7441C41.0083 13.0788 40.2878 12.5713 39.4655 12.2794C38.6433 11.9874 37.7522 11.9227 36.8935 12.0926C36.0349 12.2624 35.243 12.66 34.608 13.2403C33.9729 13.8205 33.5201 14.5601 33.3009 15.375C33.2496 15.5658 33.1596 15.7451 33.0362 15.9025C32.9127 16.06 32.7582 16.1925 32.5813 16.2926C32.4045 16.3928 32.2089 16.4585 32.0056 16.486C31.8023 16.5135 31.5954 16.5023 31.3966 16.4531C31.1978 16.4038 31.0111 16.3175 30.8471 16.199C30.6831 16.0805 30.545 15.9321 30.4407 15.7623C30.3364 15.5926 30.268 15.4047 30.2393 15.2096C30.2106 15.0145 30.2222 14.8158 30.2735 14.625C30.5778 13.4949 31.1525 12.4487 31.952 11.5694C32.7516 10.6901 33.7538 10.0021 34.8791 9.56013C36.0044 9.11815 37.2215 8.93438 38.4338 9.02346C39.646 9.11254 40.8199 9.472 41.862 10.0732C42.904 10.6745 43.7856 11.5009 44.4364 12.4868C45.0872 13.4726 45.4894 14.5907 45.6109 15.752C45.7324 16.9133 45.5699 18.0858 45.1363 19.1762C44.7028 20.2667 44.0101 21.2449 43.1134 22.0331C45.238 22.9162 47.085 24.3176 48.4708 26.0981C48.5939 26.2561 48.6833 26.4358 48.734 26.627C48.7846 26.8183 48.7955 27.0172 48.7659 27.2124C48.7363 27.4077 48.6669 27.5954 48.5616 27.7649C48.4564 27.9343 48.3173 28.0822 48.1525 28.2ZM37.629 39.75C37.7381 39.9207 37.8104 40.1107 37.8418 40.3087C37.8732 40.5068 37.8629 40.7088 37.8116 40.903C37.7603 41.0972 37.669 41.2795 37.5431 41.4392C37.4172 41.599 37.2593 41.7329 37.0786 41.8331C36.8979 41.9332 36.6981 41.9977 36.4911 42.0226C36.2841 42.0474 36.0739 42.0322 35.8731 41.9779C35.6723 41.9236 35.4848 41.8311 35.3218 41.7061C35.1588 41.5811 35.0235 41.426 34.9239 41.25C33.9395 39.6504 32.5378 38.3248 30.8569 37.404C29.1761 36.4831 27.2743 35.9988 25.339 35.9988C23.4037 35.9988 21.5018 36.4831 19.821 37.404C18.1402 38.3248 16.7384 39.6504 15.754 41.25C15.6563 41.4292 15.5219 41.5877 15.3588 41.7157C15.1957 41.8438 15.0072 41.9389 14.8048 41.9953C14.6025 42.0516 14.3903 42.0681 14.1811 42.0437C13.9719 42.0193 13.77 41.9546 13.5876 41.8533C13.4051 41.7521 13.2459 41.6165 13.1195 41.4546C12.993 41.2928 12.902 41.108 12.8519 40.9115C12.8017 40.7151 12.7935 40.5109 12.8277 40.3112C12.8619 40.1116 12.9378 39.9207 13.0509 39.75C14.5657 37.2513 16.8755 35.285 19.6407 34.14C18.0847 32.9963 16.9412 31.4133 16.3708 29.6134C15.8004 27.8135 15.8319 25.8873 16.4609 24.1055C17.0898 22.3238 18.2846 20.776 19.8772 19.6797C21.4698 18.5835 23.3803 17.994 25.3399 17.994C27.2996 17.994 29.2101 18.5835 30.8027 19.6797C32.3953 20.776 33.5901 22.3238 34.219 24.1055C34.848 25.8873 34.8795 27.8135 34.3091 29.6134C33.7387 31.4133 32.5952 32.9963 31.0392 34.14C33.8044 35.285 36.1142 37.2513 37.629 39.75ZM25.3399 33C26.5761 33 27.7845 32.6481 28.8123 31.9888C29.8401 31.3295 30.6411 30.3924 31.1142 29.2961C31.5872 28.1997 31.711 26.9933 31.4699 25.8294C31.2287 24.6655 30.6334 23.5964 29.7594 22.7573C28.8853 21.9182 27.7716 21.3468 26.5593 21.1153C25.3469 20.8837 24.0902 21.0026 22.9482 21.4567C21.8061 21.9108 20.83 22.6799 20.1433 23.6665C19.4565 24.6532 19.0899 25.8133 19.0899 27C19.0899 28.5913 19.7484 30.1174 20.9205 31.2426C22.0926 32.3678 23.6823 33 25.3399 33ZM14.4024 22.5C14.4024 22.1021 14.2378 21.7206 13.9448 21.4393C13.6518 21.158 13.2543 21 12.8399 21C11.9632 20.9999 11.1041 20.7638 10.3602 20.3185C9.61626 19.8732 9.01733 19.2365 8.63142 18.4808C8.24551 17.7251 8.08809 16.8806 8.17705 16.0433C8.26602 15.206 8.59779 14.4095 9.13469 13.7441C9.67159 13.0788 10.3921 12.5713 11.2144 12.2794C12.0366 11.9874 12.9277 11.9227 13.7864 12.0926C14.645 12.2624 15.4369 12.66 16.0719 13.2403C16.707 13.8205 17.1598 14.5601 17.379 15.375C17.4826 15.7604 17.7414 16.0905 18.0986 16.2926C18.4557 16.4948 18.8819 16.5525 19.2833 16.4531C19.6848 16.3536 20.0286 16.1052 20.2392 15.7623C20.4498 15.4195 20.51 15.0104 20.4064 14.625C20.1021 13.4949 19.5274 12.4487 18.7279 11.5694C17.9283 10.6901 16.926 10.0021 15.8008 9.56013C14.6755 9.11815 13.4584 8.93438 12.2461 9.02346C11.0339 9.11254 9.86 9.472 8.81793 10.0732C7.77586 10.6745 6.89433 11.5009 6.2435 12.4868C5.59267 13.4726 5.1905 14.5907 5.06899 15.752C4.94747 16.9133 5.10997 18.0858 5.54355 19.1762C5.97713 20.2667 6.66982 21.2449 7.56651 22.0331C5.44402 22.917 3.59915 24.3184 2.21495 26.0981C1.96605 26.4164 1.85904 26.8165 1.91746 27.2105C1.97588 27.6045 2.19495 27.9601 2.52647 28.199C2.85799 28.438 3.27481 28.5407 3.68523 28.4846C4.09565 28.4285 4.46605 28.2182 4.71495 27.9C5.65672 26.6847 6.88255 25.6987 8.29377 25.0213C9.70499 24.3439 11.2622 23.9941 12.8399 24C13.2543 24 13.6518 23.8419 13.9448 23.5606C14.2378 23.2793 14.4024 22.8978 14.4024 22.5Z" fill="#8E8E8E"/>
</svg>
