<svg width="51" height="50" viewBox="0 0 51 50" fill="none" xmlns="http://www.w3.org/2000/svg">
<path opacity="0.2" d="M45.6114 21.2422L39.3907 17.6992C39.2657 17.4727 39.1348 17.252 39.0001 17.0332L38.9766 10.002C37.0106 8.3428 34.749 7.06984 32.3106 6.25L26.0606 9.74414C25.7989 9.74414 25.5352 9.74414 25.2794 9.74414L19.0294 6.25C16.5917 7.07252 14.3314 8.34814 12.3673 10.0098L12.336 17.041C12.1993 17.2598 12.0684 17.4824 11.9454 17.707L5.72663 21.2422C5.23635 23.7221 5.23635 26.274 5.72663 28.7539L11.9473 32.2969C12.0723 32.5234 12.2032 32.7441 12.338 32.9629L12.3614 39.9941C14.3277 41.6549 16.59 42.9292 19.0294 43.75L25.2794 40.2598C25.5411 40.2598 25.8048 40.2598 26.0606 40.2598L32.3106 43.75C34.7462 42.9268 37.0045 41.6512 38.9669 39.9902L38.9981 32.959C39.1348 32.7402 39.2657 32.5176 39.3887 32.293L45.6075 28.7578C46.0996 26.2769 46.1009 23.7236 45.6114 21.2422ZM25.67 32.8125C24.1248 32.8125 22.6144 32.3543 21.3296 31.4959C20.0448 30.6374 19.0435 29.4173 18.4522 27.9897C17.8609 26.5622 17.7062 24.9913 18.0076 23.4759C18.309 21.9604 19.0531 20.5683 20.1457 19.4757C21.2383 18.3831 22.6304 17.6391 24.1458 17.3376C25.6613 17.0362 27.2322 17.1909 28.6597 17.7822C30.0873 18.3735 31.3074 19.3748 32.1658 20.6596C33.0243 21.9444 33.4825 23.4548 33.4825 25C33.4825 27.072 32.6594 29.0591 31.1943 30.5243C29.7291 31.9894 27.742 32.8125 25.67 32.8125Z" fill="#8E8E8E"/>
<path d="M25.67 15.625C23.8158 15.625 22.0032 16.1748 20.4615 17.205C18.9198 18.2351 17.7182 19.6993 17.0086 21.4123C16.299 23.1254 16.1134 25.0104 16.4751 26.829C16.8369 28.6475 17.7297 30.318 19.0409 31.6291C20.352 32.9402 22.0224 33.8331 23.841 34.1949C25.6596 34.5566 27.5446 34.3709 29.2576 33.6614C30.9707 32.9518 32.4349 31.7502 33.465 30.2085C34.4952 28.6668 35.045 26.8542 35.045 25C35.0424 22.5144 34.0539 20.1313 32.2963 18.3737C30.5387 16.6161 28.1556 15.6276 25.67 15.625ZM25.67 31.25C24.4339 31.25 23.2255 30.8834 22.1977 30.1967C21.1699 29.5099 20.3688 28.5338 19.8957 27.3918C19.4227 26.2497 19.2989 24.9931 19.5401 23.7807C19.7812 22.5683 20.3765 21.4547 21.2506 20.5806C22.1246 19.7065 23.2383 19.1113 24.4507 18.8701C25.6631 18.6289 26.9197 18.7527 28.0618 19.2258C29.2038 19.6988 30.1799 20.4999 30.8667 21.5277C31.5534 22.5555 31.92 23.7639 31.92 25C31.92 26.6576 31.2615 28.2473 30.0894 29.4194C28.9173 30.5915 27.3276 31.25 25.67 31.25ZM47.1426 20.9395C47.0991 20.7194 47.0087 20.5113 46.8776 20.3294C46.7465 20.1474 46.5778 19.9957 46.3829 19.8848L40.5567 16.5645L40.5333 9.99805C40.5326 9.7719 40.4828 9.54861 40.3873 9.34359C40.2919 9.13856 40.1531 8.9567 39.9805 8.81055C37.8671 7.02285 35.4334 5.65287 32.8087 4.77344C32.602 4.70348 32.3829 4.67759 32.1656 4.69744C31.9483 4.71728 31.7375 4.78243 31.5469 4.88868L25.67 8.17383L19.7872 4.88282C19.5965 4.77597 19.3854 4.71033 19.1678 4.69015C18.9501 4.66996 18.7306 4.69568 18.5235 4.76563C15.9004 5.6507 13.4693 7.02599 11.3594 8.81836C11.1871 8.96429 11.0485 9.14585 10.953 9.35051C10.8576 9.55518 10.8077 9.77809 10.8067 10.0039L10.7774 16.5762L4.95124 19.8965C4.75632 20.0075 4.58758 20.1591 4.45648 20.3411C4.32538 20.5231 4.23499 20.7311 4.19147 20.9512C3.65826 23.6306 3.65826 26.3889 4.19147 29.0684C4.23499 29.2884 4.32538 29.4965 4.45648 29.6785C4.58758 29.8604 4.75632 30.0121 4.95124 30.123L10.7774 33.4434L10.8008 40.0117C10.8016 40.2379 10.8513 40.4612 10.9468 40.6662C11.0422 40.8712 11.181 41.0531 11.3536 41.1992C13.467 42.9869 15.9008 44.3569 18.5255 45.2363C18.7322 45.3063 18.9512 45.3322 19.1685 45.3123C19.3858 45.2925 19.5966 45.2273 19.7872 45.1211L25.67 41.8262L31.5528 45.1172C31.7856 45.2469 32.048 45.3142 32.3145 45.3125C32.4852 45.3124 32.6547 45.2847 32.8165 45.2305C35.4389 44.3458 37.8699 42.9719 39.9805 41.1816C40.1529 41.0357 40.2915 40.8542 40.3869 40.6495C40.4824 40.4448 40.5323 40.2219 40.5333 39.9961L40.5626 33.4238L46.3887 30.1035C46.5837 29.9926 46.7524 29.8409 46.8835 29.6589C47.0146 29.4769 47.105 29.2689 47.1485 29.0488C47.6787 26.3715 47.6768 23.616 47.1426 20.9395ZM44.213 27.7578L38.6329 30.9316C38.3884 31.0707 38.186 31.2731 38.0469 31.5176C37.9337 31.7129 37.8145 31.9199 37.6934 32.1152C37.5384 32.3615 37.4558 32.6465 37.4551 32.9375L37.4258 39.2363C35.926 40.4142 34.255 41.356 32.4708 42.0293L26.8419 38.8926C26.6082 38.7633 26.3453 38.696 26.0782 38.6973H26.0411C25.8048 38.6973 25.5665 38.6973 25.3301 38.6973C25.0506 38.6905 24.7743 38.7579 24.5294 38.8926L18.8966 42.0371C17.1085 41.369 15.4329 40.4318 13.9278 39.2578L13.9063 32.9688C13.9054 32.6772 13.8228 32.3917 13.668 32.1445C13.5469 31.9492 13.4278 31.7539 13.3165 31.5469C13.1784 31.2986 12.976 31.0921 12.7305 30.9492L7.1446 27.7676C6.85553 25.9391 6.85553 24.0765 7.1446 22.2481L12.7149 19.0684C12.9594 18.9293 13.1618 18.7269 13.3008 18.4824C13.4141 18.2871 13.5333 18.0801 13.6544 17.8848C13.8094 17.6385 13.8919 17.3535 13.8926 17.0625L13.9219 10.7637C15.4218 9.58584 17.0928 8.64399 18.877 7.97071L24.4981 11.1074C24.7427 11.243 25.0193 11.3105 25.2989 11.3027C25.5352 11.3027 25.7735 11.3027 26.0098 11.3027C26.2894 11.3105 26.566 11.243 26.8106 11.1074L32.4434 7.96289C34.2315 8.63101 35.9071 9.56824 37.4122 10.7422L37.4337 17.0313C37.4346 17.3228 37.5172 17.6083 37.6719 17.8555C37.793 18.0508 37.9122 18.2461 38.0235 18.4531C38.1615 18.7014 38.364 18.9079 38.6094 19.0508L44.1954 22.2324C44.4883 24.0623 44.4916 25.9269 44.2051 27.7578H44.213Z" fill="#8E8E8E"/>
</svg>
