<svg width="50" height="48" viewBox="0 0 50 48" fill="none" xmlns="http://www.w3.org/2000/svg">
<path opacity="0.2" d="M18.5276 36L12.7756 40.17C12.5685 40.3293 12.3224 40.4353 12.0608 40.4779C11.7991 40.5206 11.5305 40.4986 11.2801 40.414C11.0298 40.3294 10.806 40.185 10.6299 39.9943C10.4538 39.8037 10.3312 39.5731 10.2737 39.3244L7.85961 28.8938C7.80759 28.6699 7.80977 28.4375 7.86597 28.2145C7.92218 27.9915 8.03092 27.7838 8.18383 27.6075L14.1038 20.7957C13.8772 25.1719 14.9905 30.2682 18.5276 36ZM41.8362 27.6075L35.9163 20.7957C36.1526 25.1719 35.0295 30.2682 31.4924 36L37.2444 40.17C37.4516 40.3293 37.6976 40.4353 37.9592 40.4779C38.2209 40.5206 38.4895 40.4986 38.7399 40.414C38.9902 40.3294 39.214 40.185 39.3901 39.9943C39.5662 39.8037 39.6888 39.5731 39.7463 39.3244L42.1604 28.8938C42.2124 28.6699 42.2102 28.4375 42.154 28.2145C42.0978 27.9915 41.9891 27.7838 41.8362 27.6075Z" fill="#8E8E8E"/>
<path d="M29.6975 42C29.6975 42.3978 29.5329 42.7794 29.2399 43.0607C28.9469 43.342 28.5494 43.5 28.135 43.5H21.885C21.4706 43.5 21.0732 43.342 20.7802 43.0607C20.4872 42.7794 20.3225 42.3978 20.3225 42C20.3225 41.6022 20.4872 41.2207 20.7802 40.9394C21.0732 40.6581 21.4706 40.5 21.885 40.5H28.135C28.5494 40.5 28.9469 40.6581 29.2399 40.9394C29.5329 41.2207 29.6975 41.6022 29.6975 42ZM25.01 21C25.4736 21 25.9267 20.8681 26.3122 20.6208C26.6976 20.3736 26.998 20.0222 27.1754 19.6111C27.3528 19.1999 27.3992 18.7475 27.3088 18.3111C27.2183 17.8746 26.9951 17.4737 26.6673 17.159C26.3395 16.8444 25.9219 16.6301 25.4673 16.5433C25.0126 16.4564 24.5414 16.501 24.1131 16.6713C23.6849 16.8416 23.3188 17.13 23.0613 17.5C22.8037 17.87 22.6663 18.305 22.6663 18.75C22.6663 19.3468 22.9132 19.9191 23.3528 20.341C23.7923 20.763 24.3884 21 25.01 21ZM43.6858 29.2181L41.2718 39.6488C41.1572 40.1441 40.9137 40.6034 40.564 40.9838C40.2142 41.3643 39.7697 41.6533 39.272 41.8239C38.7743 41.9946 38.2396 42.0412 37.7179 41.9596C37.1963 41.8779 36.7048 41.6705 36.2893 41.3569L30.969 37.5H19.055L13.7307 41.3569C13.3153 41.6705 12.8238 41.8779 12.3021 41.9596C11.7805 42.0412 11.2458 41.9946 10.7481 41.8239C10.2504 41.6533 9.80583 41.3643 9.4561 40.9838C9.10637 40.6034 8.86285 40.1441 8.74832 39.6488L6.33426 29.2181C6.23186 28.7705 6.23703 28.3064 6.34939 27.861C6.46174 27.4156 6.67832 27.0006 6.98269 26.6475L12.5608 20.2238C12.748 17.863 13.3126 15.544 14.2346 13.3481C16.7542 7.28439 21.2659 3.48002 23.096 2.12627C23.6438 1.7188 24.3171 1.49768 25.01 1.49768C25.703 1.49768 26.3763 1.7188 26.9241 2.12627C28.7483 3.48002 33.2659 7.28439 35.7854 13.3481C36.7075 15.544 37.272 17.863 37.4593 20.2238L43.0374 26.6475C43.3418 27.0006 43.5583 27.4156 43.6707 27.861C43.7831 28.3064 43.7882 28.7705 43.6858 29.2181ZM19.43 34.5H30.5901C34.7151 27.4613 35.4866 20.7225 32.8831 14.46C30.5862 8.93252 26.2776 5.43752 25.01 4.50002C23.7386 5.43752 19.43 8.93252 17.1331 14.46C14.5335 20.7225 15.305 27.4613 19.43 34.5ZM16.5003 35.5969C14.3974 31.9281 13.1214 28.3225 12.6721 24.78L9.38504 28.5675L11.7991 39L11.8343 38.9756L16.5003 35.5969ZM40.635 28.5675L37.3479 24.78C36.9026 28.315 35.6292 31.9206 33.5276 35.5969L38.1858 38.9719L38.221 38.9963L40.635 28.5675Z" fill="#8E8E8E"/>
</svg>
