<svg width="20" height="21" viewBox="0 0 20 21" fill="none" xmlns="http://www.w3.org/2000/svg">
<g clip-path="url(#clip0_4_1011)">
<path opacity="0.2" d="M17.5 10.7847C17.5 12.268 17.0601 13.7181 16.236 14.9514C15.4119 16.1848 14.2406 17.1461 12.8701 17.7138C11.4997 18.2814 9.99168 18.4299 8.53682 18.1406C7.08196 17.8512 5.74559 17.1369 4.6967 16.088C3.6478 15.0391 2.9335 13.7027 2.64411 12.2478C2.35472 10.793 2.50325 9.28499 3.0709 7.91454C3.63856 6.5441 4.59985 5.37276 5.83322 4.54865C7.06659 3.72454 8.51664 3.28467 10 3.28467C11.9891 3.28467 13.8968 4.07484 15.3033 5.48137C16.7098 6.88789 17.5 8.79554 17.5 10.7847Z" fill="#8E8E8E"/>
<path d="M10 2.65967C8.39303 2.65967 6.82214 3.13619 5.48599 4.02898C4.14984 4.92176 3.10844 6.19072 2.49348 7.67536C1.87852 9.16001 1.71761 10.7937 2.03112 12.3698C2.34462 13.9459 3.11846 15.3936 4.25476 16.5299C5.39106 17.6662 6.8388 18.44 8.41489 18.7535C9.99099 19.0671 11.6247 18.9062 13.1093 18.2912C14.594 17.6762 15.8629 16.6348 16.7557 15.2987C17.6485 13.9625 18.125 12.3916 18.125 10.7847C18.1227 8.63048 17.266 6.56518 15.7427 5.04194C14.2195 3.5187 12.1542 2.66194 10 2.65967ZM16.8477 10.1737C16.6487 10.1644 16.4495 10.1597 16.25 10.1597C15.0906 10.16 13.9364 10.3134 12.8172 10.6159C12.5443 9.80621 12.1924 9.02536 11.7664 8.28467C12.8773 7.61476 13.883 6.78415 14.7508 5.81982C15.9549 6.96862 16.7001 8.51608 16.8477 10.1737ZM13.7719 5.03936C12.9912 5.89715 12.0889 6.63575 11.0938 7.23154C10.2603 6.05843 9.24089 5.02927 8.07578 4.18467C9.03158 3.90564 10.0366 3.83756 11.0213 3.98513C12.006 4.1327 12.9469 4.4924 13.7789 5.03936H13.7719ZM6.69141 4.75967C7.96843 5.56388 9.08176 6.60246 9.97266 7.82061C8.41346 8.53924 6.71684 8.91081 5 8.90967C4.47013 8.9094 3.94086 8.87416 3.41562 8.8042C3.93825 7.08038 5.11376 5.629 6.69141 4.75967ZM3.125 10.7847C3.12497 10.5331 3.13879 10.2816 3.16641 10.0315C3.77388 10.1168 4.38657 10.1596 5 10.1597C6.96058 10.1615 8.89662 9.72369 10.6656 8.87842C11.0554 9.55146 11.3775 10.2614 11.6273 10.9979C10.9634 11.2474 10.3209 11.5504 9.70625 11.9042C7.99146 12.8949 6.52114 14.2581 5.40391 15.8933C4.68646 15.2496 4.1127 14.4621 3.72004 13.5818C3.32737 12.7016 3.12462 11.7485 3.125 10.7847ZM6.40625 16.644C7.42059 15.1438 8.76275 13.8938 10.3313 12.9886C10.8556 12.6859 11.4029 12.4247 11.968 12.2073C12.1614 13.0655 12.2591 13.9425 12.2594 14.8222C12.2598 15.6774 12.1684 16.5302 11.9867 17.3659C11.0583 17.6464 10.081 17.7271 9.11917 17.6026C8.15733 17.4782 7.23274 17.1515 6.40625 16.644ZM13.3641 16.7792C13.4605 16.1326 13.5091 15.4798 13.5094 14.8261C13.5092 13.8142 13.3926 12.8058 13.1617 11.8206C14.1687 11.5489 15.207 11.4107 16.25 11.4097C16.4479 11.4097 16.6461 11.4146 16.8445 11.4245C16.7399 12.5317 16.3686 13.597 15.7625 14.5294C15.1564 15.4617 14.3334 16.2334 13.3641 16.7784V16.7792Z" fill="#8E8E8E"/>
</g>
<defs>
<clipPath id="clip0_4_1011">
<rect width="20" height="20" fill="white" transform="translate(0 0.784668)"/>
</clipPath>
</defs>
</svg>
