<svg width="20" height="21" viewBox="0 0 20 21" fill="none" xmlns="http://www.w3.org/2000/svg">
<g clip-path="url(#clip0_4_1016)">
<path opacity="0.2" d="M17.5 3.90967V17.6597C17.5 17.8254 17.4342 17.9844 17.3169 18.1016C17.1997 18.2188 17.0408 18.2847 16.875 18.2847H3.125C2.95924 18.2847 2.80027 18.2188 2.68306 18.1016C2.56585 17.9844 2.5 17.8254 2.5 17.6597V3.90967C2.5 3.74391 2.56585 3.58494 2.68306 3.46773C2.80027 3.35052 2.95924 3.28467 3.125 3.28467H16.875C17.0408 3.28467 17.1997 3.35052 17.3169 3.46773C17.4342 3.58494 17.5 3.74391 17.5 3.90967Z" fill="#8E8E8E"/>
<path d="M16.875 2.65967H3.125C2.79348 2.65967 2.47554 2.79136 2.24112 3.02578C2.0067 3.2602 1.875 3.57815 1.875 3.90967V17.6597C1.875 17.9912 2.0067 18.3091 2.24112 18.5436C2.47554 18.778 2.79348 18.9097 3.125 18.9097H16.875C17.2065 18.9097 17.5245 18.778 17.7589 18.5436C17.9933 18.3091 18.125 17.9912 18.125 17.6597V3.90967C18.125 3.57815 17.9933 3.2602 17.7589 3.02578C17.5245 2.79136 17.2065 2.65967 16.875 2.65967ZM16.875 17.6597H3.125V3.90967H16.875V17.6597ZM7.5 9.53467V14.5347C7.5 14.7004 7.43415 14.8594 7.31694 14.9766C7.19973 15.0938 7.04076 15.1597 6.875 15.1597C6.70924 15.1597 6.55027 15.0938 6.43306 14.9766C6.31585 14.8594 6.25 14.7004 6.25 14.5347V9.53467C6.25 9.36891 6.31585 9.20994 6.43306 9.09273C6.55027 8.97552 6.70924 8.90967 6.875 8.90967C7.04076 8.90967 7.19973 8.97552 7.31694 9.09273C7.43415 9.20994 7.5 9.36891 7.5 9.53467ZM14.375 11.7222V14.5347C14.375 14.7004 14.3092 14.8594 14.1919 14.9766C14.0747 15.0938 13.9158 15.1597 13.75 15.1597C13.5842 15.1597 13.4253 15.0938 13.3081 14.9766C13.1908 14.8594 13.125 14.7004 13.125 14.5347V11.7222C13.125 11.3078 12.9604 10.9103 12.6674 10.6173C12.3743 10.3243 11.9769 10.1597 11.5625 10.1597C11.1481 10.1597 10.7507 10.3243 10.4576 10.6173C10.1646 10.9103 10 11.3078 10 11.7222V14.5347C10 14.7004 9.93415 14.8594 9.81694 14.9766C9.69973 15.0938 9.54076 15.1597 9.375 15.1597C9.20924 15.1597 9.05027 15.0938 8.93306 14.9766C8.81585 14.8594 8.75 14.7004 8.75 14.5347V9.53467C8.75078 9.38158 8.80771 9.2341 8.91001 9.1202C9.01231 9.00631 9.15285 8.93392 9.30498 8.91677C9.45711 8.89962 9.61024 8.9389 9.73533 9.02716C9.86041 9.11543 9.94876 9.24653 9.98359 9.39561C10.4064 9.10879 10.8993 8.94256 11.4095 8.91476C11.9196 8.88697 12.4277 8.99866 12.8792 9.23784C13.3306 9.47702 13.7084 9.83466 13.972 10.2724C14.2355 10.71 14.3748 11.2113 14.375 11.7222ZM7.8125 7.34717C7.8125 7.53259 7.75752 7.71384 7.6545 7.86801C7.55149 8.02219 7.40507 8.14235 7.23377 8.2133C7.06246 8.28426 6.87396 8.30283 6.6921 8.26665C6.51025 8.23048 6.3432 8.14119 6.21209 8.01008C6.08098 7.87897 5.99169 7.71192 5.95551 7.53007C5.91934 7.34821 5.93791 7.15971 6.00886 6.9884C6.07982 6.8171 6.19998 6.67068 6.35415 6.56767C6.50832 6.46465 6.68958 6.40967 6.875 6.40967C7.12364 6.40967 7.3621 6.50844 7.53791 6.68426C7.71373 6.86007 7.8125 7.09853 7.8125 7.34717Z" fill="#8E8E8E"/>
</g>
<defs>
<clipPath id="clip0_4_1016">
<rect width="20" height="20" fill="white" transform="translate(0 0.784668)"/>
</clipPath>
</defs>
</svg>
